<svg width="25" height="23" viewBox="0 0 25 23" fill="none" xmlns="http://www.w3.org/2000/svg">
<path d="M23.4515 3.29366H1.16574C0.938408 3.29366 0.720391 3.20837 0.559645 3.05655C0.3989 2.90474 0.308594 2.69884 0.308594 2.48413L0.308594 0.865088C0.308594 0.650389 0.3989 0.444483 0.559645 0.292667C0.720391 0.140854 0.938408 0.0555649 1.16574 0.0555649H23.4515C23.6788 0.0555649 23.8968 0.140854 24.0575 0.292667C24.2183 0.444483 24.3086 0.650389 24.3086 0.865088V2.48413C24.3086 2.69884 24.2183 2.90474 24.0575 3.05655C23.8968 3.20837 23.6788 3.29366 23.4515 3.29366ZM23.4515 9.76985H1.16574C0.938408 9.76985 0.720391 9.68456 0.559645 9.53275C0.3989 9.38093 0.308594 9.17502 0.308594 8.96033L0.308594 7.34128C0.308594 7.12658 0.3989 6.92067 0.559645 6.76886C0.720391 6.61704 0.938408 6.53175 1.16574 6.53175H23.4515C23.6788 6.53175 23.8968 6.61704 24.0575 6.76886C24.2183 6.92067 24.3086 7.12658 24.3086 7.34128V8.96033C24.3086 9.17502 24.2183 9.38093 24.0575 9.53275C23.8968 9.68456 23.6788 9.76985 23.4515 9.76985ZM23.4515 16.246H1.16574C0.938408 16.246 0.720391 16.1607 0.559645 16.0089C0.3989 15.8571 0.308594 15.6512 0.308594 15.4365L0.308594 13.8175C0.308594 13.6028 0.3989 13.3969 0.559645 13.245C0.720391 13.0932 0.938408 13.0079 1.16574 13.0079H23.4515C23.6788 13.0079 23.8968 13.0932 24.0575 13.245C24.2183 13.3969 24.3086 13.6028 24.3086 13.8175V15.4365C24.3086 15.6512 24.2183 15.8571 24.0575 16.0089C23.8968 16.1607 23.6788 16.246 23.4515 16.246ZM23.4515 22.7222H1.16574C0.938408 22.7222 0.720391 22.6369 0.559645 22.4851C0.3989 22.3333 0.308594 22.1274 0.308594 21.9127L0.308594 20.2937C0.308594 20.079 0.3989 19.8731 0.559645 19.7212C0.720391 19.5694 0.938408 19.4841 1.16574 19.4841H23.4515C23.6788 19.4841 23.8968 19.5694 24.0575 19.7212C24.2183 19.8731 24.3086 20.079 24.3086 20.2937V21.9127C24.3086 22.1274 24.2183 22.3333 24.0575 22.4851C23.8968 22.6369 23.6788 22.7222 23.4515 22.7222Z" fill="white"/>
</svg>
