<svg width="41" height="32" viewBox="0 0 41 32" fill="none" xmlns="http://www.w3.org/2000/svg">
<path id="Vector" d="M39.5357 5.32615H1.46429C1.07593 5.32615 0.703486 5.20972 0.428879 5.00247C0.154273 4.79522 0 4.51413 0 4.22103L0 2.01079C0 1.71769 0.154273 1.4366 0.428879 1.22935C0.703486 1.0221 1.07593 0.905664 1.46429 0.905664H39.5357C39.9241 0.905664 40.2965 1.0221 40.5711 1.22935C40.8457 1.4366 41 1.71769 41 2.01079V4.22103C41 4.51413 40.8457 4.79522 40.5711 5.00247C40.2965 5.20972 39.9241 5.32615 39.5357 5.32615ZM39.5357 14.1671H1.46429C1.07593 14.1671 0.703486 14.0507 0.428879 13.8434C0.154273 13.6362 0 13.3551 0 13.062L0 10.8518C0 10.5587 0.154273 10.2776 0.428879 10.0703C0.703486 9.86307 1.07593 9.74664 1.46429 9.74664H39.5357C39.9241 9.74664 40.2965 9.86307 40.5711 10.0703C40.8457 10.2776 41 10.5587 41 10.8518V13.062C41 13.3551 40.8457 13.6362 40.5711 13.8434C40.2965 14.0507 39.9241 14.1671 39.5357 14.1671ZM39.5357 23.0081H1.46429C1.07593 23.0081 0.703486 22.8917 0.428879 22.6844C0.154273 22.4772 0 22.1961 0 21.903L0 19.6927C0 19.3996 0.154273 19.1185 0.428879 18.9113C0.703486 18.704 1.07593 18.5876 1.46429 18.5876H39.5357C39.9241 18.5876 40.2965 18.704 40.5711 18.9113C40.8457 19.1185 41 19.3996 41 19.6927V21.903C41 22.1961 40.8457 22.4772 40.5711 22.6844C40.2965 22.8917 39.9241 23.0081 39.5357 23.0081ZM39.5357 31.8491H1.46429C1.07593 31.8491 0.703486 31.7326 0.428879 31.5254C0.154273 31.3181 0 31.037 0 30.7439L0 28.5337C0 28.2406 0.154273 27.9595 0.428879 27.7523C0.703486 27.545 1.07593 27.4286 1.46429 27.4286H39.5357C39.9241 27.4286 40.2965 27.545 40.5711 27.7523C40.8457 27.9595 41 28.2406 41 28.5337V30.7439C41 31.037 40.8457 31.3181 40.5711 31.5254C40.2965 31.7326 39.9241 31.8491 39.5357 31.8491Z" fill="white"/>
</svg>
