<svg width="46" height="46" viewBox="0 0 46 46" fill="none" xmlns="http://www.w3.org/2000/svg">
<g id="Icon">
<path id="Vector" d="M40.25 38.1836L38.1836 40.25L28.0312 30.0977C26.8633 31.026 25.5381 31.7523 24.0557 32.2764C22.5732 32.8005 21.0234 33.0625 19.4062 33.0625C17.5195 33.0625 15.7526 32.7031 14.1055 31.9844C12.4284 31.2656 10.9759 30.2923 9.74805 29.0645C8.52018 27.8366 7.54688 26.3841 6.82812 24.707C6.10938 23.0599 5.75 21.293 5.75 19.4062C5.75 17.5195 6.10938 15.7526 6.82812 14.1055C7.54688 12.4284 8.52018 10.9759 9.74805 9.74805C10.9759 8.52018 12.4284 7.54688 14.1055 6.82812C15.7526 6.10938 17.5195 5.75 19.4062 5.75C21.293 5.75 23.0599 6.10938 24.707 6.82812C26.3841 7.54688 27.8366 8.52018 29.0645 9.74805C30.2923 10.9759 31.2656 12.4284 31.9844 14.1055C32.7031 15.7526 33.0625 17.5195 33.0625 19.4062C33.0625 21.0234 32.8079 22.5583 32.2988 24.0107C31.7897 25.4632 31.056 26.7734 30.0977 27.9414L40.25 38.1836ZM10.7812 28.1211C11.9492 29.2891 13.2744 30.165 14.7568 30.749C16.2393 31.333 17.7891 31.625 19.4062 31.625C21.0234 31.625 22.5732 31.318 24.0557 30.7041C25.5381 30.0902 26.8633 29.1992 28.0312 28.0312C29.1992 26.8633 30.0902 25.5381 30.7041 24.0557C31.318 22.5732 31.625 21.0234 31.625 19.4062C31.625 17.7891 31.318 16.2393 30.7041 14.7568C30.0902 13.2744 29.1992 11.9492 28.0312 10.7812C26.8633 9.61328 25.5381 8.72233 24.0557 8.1084C22.5732 7.49446 21.0234 7.1875 19.4062 7.1875C17.7891 7.1875 16.2393 7.49446 14.7568 8.1084C13.2744 8.72233 11.9492 9.61328 10.7812 10.7812C9.61328 11.9492 8.72233 13.2744 8.1084 14.7568C7.49447 16.2393 7.1875 17.7891 7.1875 19.4062C7.1875 21.0234 7.49447 22.5882 8.1084 24.1006C8.72233 25.613 9.61328 26.9531 10.7812 28.1211Z" fill="white"/>
</g>
</svg>
